<mxfile host="app.diagrams.net" modified="2024-11-21T08:43:10.148Z" agent="Mozilla/5.0 (Macintosh; Intel Mac OS X 10_15_7) AppleWebKit/537.36 (KHTML, like Gecko) Chrome/131.0.0.0 Safari/537.36" etag="DZo9vffcxxPK96bn5MIs" version="24.3.1" type="device">
  <diagram name="Page-1" id="4EZJNXDmSmeWNU2XYBPG">
    <mxGraphModel dx="1082" dy="761" grid="1" gridSize="10" guides="1" tooltips="1" connect="1" arrows="1" fold="1" page="1" pageScale="1" pageWidth="850" pageHeight="1100" math="0" shadow="0">
      <root>
        <mxCell id="0" />
        <mxCell id="1" parent="0" />
        <mxCell id="kWLLVNX1P-5T2rrt0Dd2-1" value="" style="endArrow=none;html=1;rounded=0;" edge="1" parent="1">
          <mxGeometry width="50" height="50" relative="1" as="geometry">
            <mxPoint x="360" y="400" as="sourcePoint" />
            <mxPoint x="360" y="120" as="targetPoint" />
          </mxGeometry>
        </mxCell>
        <mxCell id="kWLLVNX1P-5T2rrt0Dd2-2" value="" style="endArrow=none;html=1;rounded=0;" edge="1" parent="1">
          <mxGeometry width="50" height="50" relative="1" as="geometry">
            <mxPoint x="520" y="400" as="sourcePoint" />
            <mxPoint x="520" y="120" as="targetPoint" />
          </mxGeometry>
        </mxCell>
        <mxCell id="kWLLVNX1P-5T2rrt0Dd2-3" value="" style="endArrow=none;html=1;rounded=0;" edge="1" parent="1">
          <mxGeometry width="50" height="50" relative="1" as="geometry">
            <mxPoint x="600" y="200" as="sourcePoint" />
            <mxPoint x="280" y="200" as="targetPoint" />
          </mxGeometry>
        </mxCell>
        <mxCell id="kWLLVNX1P-5T2rrt0Dd2-4" value="" style="endArrow=none;html=1;rounded=0;" edge="1" parent="1">
          <mxGeometry width="50" height="50" relative="1" as="geometry">
            <mxPoint x="600" y="320" as="sourcePoint" />
            <mxPoint x="280" y="320" as="targetPoint" />
          </mxGeometry>
        </mxCell>
        <mxCell id="kWLLVNX1P-5T2rrt0Dd2-5" value="" style="endArrow=none;html=1;rounded=0;strokeColor=#6c8ebf;dashed=1;dashPattern=8 8;strokeWidth=2;endFill=0;startArrow=block;startFill=1;fillColor=#dae8fc;" edge="1" parent="1">
          <mxGeometry width="50" height="50" relative="1" as="geometry">
            <mxPoint x="680" y="80" as="sourcePoint" />
            <mxPoint x="240" y="80" as="targetPoint" />
          </mxGeometry>
        </mxCell>
        <mxCell id="kWLLVNX1P-5T2rrt0Dd2-6" value="" style="endArrow=none;html=1;rounded=0;startArrow=block;startFill=1;dashed=1;dashPattern=8 8;strokeWidth=2;" edge="1" parent="1">
          <mxGeometry width="50" height="50" relative="1" as="geometry">
            <mxPoint x="240" y="430" as="sourcePoint" />
            <mxPoint x="240" y="40" as="targetPoint" />
          </mxGeometry>
        </mxCell>
        <mxCell id="kWLLVNX1P-5T2rrt0Dd2-7" value="Wall Clock Time" style="text;html=1;align=center;verticalAlign=middle;resizable=0;points=[];autosize=1;strokeColor=#6c8ebf;fillColor=#dae8fc;" vertex="1" parent="1">
          <mxGeometry x="680" y="70" width="110" height="30" as="geometry" />
        </mxCell>
        <mxCell id="kWLLVNX1P-5T2rrt0Dd2-8" value="" style="endArrow=none;html=1;rounded=0;strokeColor=#b85450;dashed=1;dashPattern=8 8;strokeWidth=2;endFill=0;startArrow=block;startFill=1;fillColor=#f8cecc;" edge="1" parent="1">
          <mxGeometry width="50" height="50" relative="1" as="geometry">
            <mxPoint x="680" y="40" as="sourcePoint" />
            <mxPoint x="240" y="40" as="targetPoint" />
          </mxGeometry>
        </mxCell>
        <mxCell id="kWLLVNX1P-5T2rrt0Dd2-9" value="Sample Time" style="text;html=1;align=center;verticalAlign=middle;resizable=0;points=[];autosize=1;strokeColor=#b85450;fillColor=#f8cecc;" vertex="1" parent="1">
          <mxGeometry x="680" y="20" width="90" height="30" as="geometry" />
        </mxCell>
        <mxCell id="kWLLVNX1P-5T2rrt0Dd2-10" value="Tags" style="text;html=1;align=center;verticalAlign=middle;resizable=0;points=[];autosize=1;strokeColor=default;" vertex="1" parent="1">
          <mxGeometry x="220" y="430" width="50" height="30" as="geometry" />
        </mxCell>
        <mxCell id="kWLLVNX1P-5T2rrt0Dd2-11" value="" style="endArrow=classic;startArrow=classic;html=1;rounded=0;" edge="1" parent="1">
          <mxGeometry width="50" height="50" relative="1" as="geometry">
            <mxPoint x="370" y="140" as="sourcePoint" />
            <mxPoint x="510" y="140" as="targetPoint" />
          </mxGeometry>
        </mxCell>
        <mxCell id="kWLLVNX1P-5T2rrt0Dd2-13" value="Time Bucket" style="edgeLabel;html=1;align=center;verticalAlign=middle;resizable=0;points=[];" vertex="1" connectable="0" parent="kWLLVNX1P-5T2rrt0Dd2-11">
          <mxGeometry x="-0.0571" relative="1" as="geometry">
            <mxPoint as="offset" />
          </mxGeometry>
        </mxCell>
        <mxCell id="kWLLVNX1P-5T2rrt0Dd2-14" value="" style="endArrow=classic;startArrow=classic;html=1;rounded=0;" edge="1" parent="1">
          <mxGeometry width="50" height="50" relative="1" as="geometry">
            <mxPoint x="310" y="310" as="sourcePoint" />
            <mxPoint x="310" y="210" as="targetPoint" />
          </mxGeometry>
        </mxCell>
        <mxCell id="kWLLVNX1P-5T2rrt0Dd2-15" value="Tag&lt;div&gt;&amp;nbsp;Bucket&lt;/div&gt;" style="edgeLabel;html=1;align=center;verticalAlign=middle;resizable=0;points=[];" vertex="1" connectable="0" parent="kWLLVNX1P-5T2rrt0Dd2-14">
          <mxGeometry x="-0.0571" relative="1" as="geometry">
            <mxPoint y="-3" as="offset" />
          </mxGeometry>
        </mxCell>
        <mxCell id="kWLLVNX1P-5T2rrt0Dd2-16" value="Logical Id" style="rounded=1;whiteSpace=wrap;html=1;fillColor=#d5e8d4;strokeColor=#82b366;" vertex="1" parent="1">
          <mxGeometry x="380" y="230" width="120" height="60" as="geometry" />
        </mxCell>
        <mxCell id="kWLLVNX1P-5T2rrt0Dd2-17" value="" style="endArrow=none;html=1;rounded=0;" edge="1" parent="1">
          <mxGeometry width="50" height="50" relative="1" as="geometry">
            <mxPoint y="520" as="sourcePoint" />
            <mxPoint x="840" y="520" as="targetPoint" />
          </mxGeometry>
        </mxCell>
        <mxCell id="kWLLVNX1P-5T2rrt0Dd2-18" value="Logical Id" style="rounded=1;whiteSpace=wrap;html=1;fillColor=#d5e8d4;strokeColor=#82b366;" vertex="1" parent="1">
          <mxGeometry x="320" y="630" width="120" height="60" as="geometry" />
        </mxCell>
        <mxCell id="kWLLVNX1P-5T2rrt0Dd2-20" value="Disk-2" style="rounded=1;whiteSpace=wrap;html=1;fillColor=#e1d5e7;strokeColor=#9673a6;" vertex="1" parent="1">
          <mxGeometry x="335" y="780" width="90" height="30" as="geometry" />
        </mxCell>
        <mxCell id="kWLLVNX1P-5T2rrt0Dd2-22" value="&lt;b&gt;&lt;font style=&quot;font-size: 17px;&quot;&gt;Writer&#39;s View&lt;/font&gt;&lt;/b&gt;" style="text;html=1;align=center;verticalAlign=middle;resizable=0;points=[];autosize=1;strokeColor=none;fillColor=none;" vertex="1" parent="1">
          <mxGeometry x="5" y="535" width="130" height="30" as="geometry" />
        </mxCell>
        <mxCell id="kWLLVNX1P-5T2rrt0Dd2-23" value="Concurrent Writer-1" style="rounded=1;whiteSpace=wrap;html=1;fillColor=#ffe6cc;strokeColor=#d79b00;" vertex="1" parent="1">
          <mxGeometry x="215" y="910" width="90" height="30" as="geometry" />
        </mxCell>
        <mxCell id="kWLLVNX1P-5T2rrt0Dd2-24" value="Concurrent Writer-2" style="rounded=1;whiteSpace=wrap;html=1;fillColor=#ffe6cc;strokeColor=#d79b00;" vertex="1" parent="1">
          <mxGeometry x="335" y="910" width="90" height="30" as="geometry" />
        </mxCell>
        <mxCell id="kWLLVNX1P-5T2rrt0Dd2-25" value="Concurrent Writer-N" style="rounded=1;whiteSpace=wrap;html=1;fillColor=#ffe6cc;strokeColor=#d79b00;" vertex="1" parent="1">
          <mxGeometry x="455" y="910" width="90" height="30" as="geometry" />
        </mxCell>
        <mxCell id="kWLLVNX1P-5T2rrt0Dd2-29" value="" style="endArrow=classic;html=1;rounded=0;entryX=0.5;entryY=0;entryDx=0;entryDy=0;edgeStyle=orthogonalEdgeStyle;exitX=0.5;exitY=1;exitDx=0;exitDy=0;" edge="1" parent="1" source="kWLLVNX1P-5T2rrt0Dd2-18" target="kWLLVNX1P-5T2rrt0Dd2-20">
          <mxGeometry width="50" height="50" relative="1" as="geometry">
            <mxPoint x="395" y="700" as="sourcePoint" />
            <mxPoint x="500" y="730" as="targetPoint" />
          </mxGeometry>
        </mxCell>
        <mxCell id="kWLLVNX1P-5T2rrt0Dd2-31" value="" style="endArrow=classic;html=1;rounded=0;entryX=0.5;entryY=0;entryDx=0;entryDy=0;edgeStyle=orthogonalEdgeStyle;exitX=0.5;exitY=1;exitDx=0;exitDy=0;" edge="1" parent="1" source="kWLLVNX1P-5T2rrt0Dd2-20" target="kWLLVNX1P-5T2rrt0Dd2-24">
          <mxGeometry width="50" height="50" relative="1" as="geometry">
            <mxPoint x="380" y="860" as="sourcePoint" />
            <mxPoint x="620" y="900" as="targetPoint" />
          </mxGeometry>
        </mxCell>
        <mxCell id="kWLLVNX1P-5T2rrt0Dd2-32" value="" style="endArrow=classic;html=1;rounded=0;entryX=0.5;entryY=0;entryDx=0;entryDy=0;edgeStyle=orthogonalEdgeStyle;exitX=0.5;exitY=1;exitDx=0;exitDy=0;" edge="1" parent="1" source="kWLLVNX1P-5T2rrt0Dd2-20" target="kWLLVNX1P-5T2rrt0Dd2-23">
          <mxGeometry width="50" height="50" relative="1" as="geometry">
            <mxPoint x="380" y="860" as="sourcePoint" />
            <mxPoint x="630" y="910" as="targetPoint" />
          </mxGeometry>
        </mxCell>
        <mxCell id="kWLLVNX1P-5T2rrt0Dd2-35" style="rounded=0;orthogonalLoop=1;jettySize=auto;html=1;exitX=0.5;exitY=0;exitDx=0;exitDy=0;exitPerimeter=0;entryX=0.5;entryY=1;entryDx=0;entryDy=0;" edge="1" parent="1" source="kWLLVNX1P-5T2rrt0Dd2-33" target="kWLLVNX1P-5T2rrt0Dd2-23">
          <mxGeometry relative="1" as="geometry">
            <mxPoint x="260" y="991.98" as="sourcePoint" />
          </mxGeometry>
        </mxCell>
        <mxCell id="kWLLVNX1P-5T2rrt0Dd2-33" value="DB" style="shape=cylinder3;whiteSpace=wrap;html=1;boundedLbl=1;backgroundOutline=1;size=15;" vertex="1" parent="1">
          <mxGeometry x="230" y="970" width="60" height="60" as="geometry" />
        </mxCell>
        <mxCell id="kWLLVNX1P-5T2rrt0Dd2-37" value="Misplacement&lt;div&gt;Links&lt;/div&gt;" style="rounded=0;whiteSpace=wrap;html=1;" vertex="1" parent="1">
          <mxGeometry x="20" y="640" width="120" height="40" as="geometry" />
        </mxCell>
        <mxCell id="kWLLVNX1P-5T2rrt0Dd2-39" value="" style="endArrow=classic;html=1;rounded=0;edgeStyle=orthogonalEdgeStyle;dashed=1;dashPattern=1 1;exitX=1;exitY=0.5;exitDx=0;exitDy=0;entryX=0;entryY=0.5;entryDx=0;entryDy=0;startArrow=block;startFill=1;" edge="1" parent="1" source="kWLLVNX1P-5T2rrt0Dd2-37" target="kWLLVNX1P-5T2rrt0Dd2-18">
          <mxGeometry width="50" height="50" relative="1" as="geometry">
            <mxPoint x="210" y="630" as="sourcePoint" />
            <mxPoint x="575" y="580" as="targetPoint" />
          </mxGeometry>
        </mxCell>
        <mxCell id="kWLLVNX1P-5T2rrt0Dd2-40" value="" style="endArrow=classic;html=1;rounded=0;edgeStyle=orthogonalEdgeStyle;dashed=1;dashPattern=1 1;entryX=0;entryY=0.5;entryDx=0;entryDy=0;startArrow=block;startFill=1;exitX=0.993;exitY=0.1;exitDx=0;exitDy=0;exitPerimeter=0;" edge="1" parent="1" source="kWLLVNX1P-5T2rrt0Dd2-43" target="kWLLVNX1P-5T2rrt0Dd2-20">
          <mxGeometry width="50" height="50" relative="1" as="geometry">
            <mxPoint x="145" y="770" as="sourcePoint" />
            <mxPoint x="225" y="795" as="targetPoint" />
          </mxGeometry>
        </mxCell>
        <mxCell id="kWLLVNX1P-5T2rrt0Dd2-41" value="Meta" style="swimlane;fontStyle=0;childLayout=stackLayout;horizontal=1;startSize=30;horizontalStack=0;resizeParent=1;resizeParentMax=0;resizeLast=0;collapsible=1;marginBottom=0;whiteSpace=wrap;html=1;" vertex="1" parent="1">
          <mxGeometry x="20" y="740" width="140" height="120" as="geometry" />
        </mxCell>
        <mxCell id="kWLLVNX1P-5T2rrt0Dd2-42" value="birth" style="text;strokeColor=none;fillColor=none;align=left;verticalAlign=middle;spacingLeft=4;spacingRight=4;overflow=hidden;points=[[0,0.5],[1,0.5]];portConstraint=eastwest;rotatable=0;whiteSpace=wrap;html=1;" vertex="1" parent="kWLLVNX1P-5T2rrt0Dd2-41">
          <mxGeometry y="30" width="140" height="30" as="geometry" />
        </mxCell>
        <mxCell id="kWLLVNX1P-5T2rrt0Dd2-43" value="lastWrite" style="text;strokeColor=none;fillColor=none;align=left;verticalAlign=middle;spacingLeft=4;spacingRight=4;overflow=hidden;points=[[0,0.5],[1,0.5]];portConstraint=eastwest;rotatable=0;whiteSpace=wrap;html=1;" vertex="1" parent="kWLLVNX1P-5T2rrt0Dd2-41">
          <mxGeometry y="60" width="140" height="30" as="geometry" />
        </mxCell>
        <mxCell id="kWLLVNX1P-5T2rrt0Dd2-44" value="-" style="text;strokeColor=none;fillColor=none;align=left;verticalAlign=middle;spacingLeft=4;spacingRight=4;overflow=hidden;points=[[0,0.5],[1,0.5]];portConstraint=eastwest;rotatable=0;whiteSpace=wrap;html=1;" vertex="1" parent="kWLLVNX1P-5T2rrt0Dd2-41">
          <mxGeometry y="90" width="140" height="30" as="geometry" />
        </mxCell>
        <mxCell id="kWLLVNX1P-5T2rrt0Dd2-45" value="" style="endArrow=classic;html=1;rounded=0;entryX=0.5;entryY=0;entryDx=0;entryDy=0;edgeStyle=orthogonalEdgeStyle;exitX=0.5;exitY=1;exitDx=0;exitDy=0;" edge="1" parent="1" source="kWLLVNX1P-5T2rrt0Dd2-20" target="kWLLVNX1P-5T2rrt0Dd2-25">
          <mxGeometry width="50" height="50" relative="1" as="geometry">
            <mxPoint x="390" y="820" as="sourcePoint" />
            <mxPoint x="270" y="950" as="targetPoint" />
          </mxGeometry>
        </mxCell>
        <mxCell id="kWLLVNX1P-5T2rrt0Dd2-46" value="" style="endArrow=none;html=1;rounded=0;" edge="1" parent="1">
          <mxGeometry width="50" height="50" relative="1" as="geometry">
            <mxPoint y="1070" as="sourcePoint" />
            <mxPoint x="840" y="1070" as="targetPoint" />
          </mxGeometry>
        </mxCell>
        <mxCell id="kWLLVNX1P-5T2rrt0Dd2-47" value="&lt;b&gt;&lt;font style=&quot;font-size: 17px;&quot;&gt;Reader&#39;s View&lt;/font&gt;&lt;/b&gt;" style="text;html=1;align=center;verticalAlign=middle;resizable=0;points=[];autosize=1;strokeColor=none;fillColor=none;" vertex="1" parent="1">
          <mxGeometry x="5" y="1090" width="140" height="30" as="geometry" />
        </mxCell>
        <mxCell id="kWLLVNX1P-5T2rrt0Dd2-48" value="&lt;b&gt;&lt;font style=&quot;font-size: 17px;&quot;&gt;Logical System View&lt;/font&gt;&lt;/b&gt;" style="text;html=1;align=center;verticalAlign=middle;resizable=0;points=[];autosize=1;strokeColor=none;fillColor=none;" vertex="1" parent="1">
          <mxGeometry x="5" y="10" width="190" height="30" as="geometry" />
        </mxCell>
      </root>
    </mxGraphModel>
  </diagram>
</mxfile>
